<svg width="634" height="183" viewBox="0 0 634 183" fill="none" xmlns="http://www.w3.org/2000/svg">
<path d="M61 36L60.5 62.5L42 70L23.5 77.5L42.25 85.25L61 93V120.5H84.5L117 36H61Z" fill="#FFFCF2"/>
<path d="M60.5 62.5L62.0028 66.207L64.4495 65.2151L64.4993 62.5755L60.5 62.5ZM61 36V32H57.0748L57.0007 35.9245L61 36ZM117 36L120.733 37.4359L122.824 32H117V36ZM84.5 120.5V124.5H87.2472L88.2334 121.936L84.5 120.5ZM61 120.5H57V124.5H61V120.5ZM61 93H65V90.3251L62.528 89.3033L61 93ZM23.5 77.5L21.9972 73.793L21.972 81.1967L23.5 77.5ZM64.4993 62.5755L64.9993 36.0755L57.0007 35.9245L56.5007 62.4245L64.4993 62.5755ZM61 40H117V32H61V40ZM113.267 34.5641L80.7666 119.064L88.2334 121.936L120.733 37.4359L113.267 34.5641ZM84.5 116.5H61V124.5H84.5V116.5ZM65 120.5V93H57V120.5H65ZM25.0028 81.207L43.5028 73.707L40.4972 66.293L21.9972 73.793L25.0028 81.207ZM43.5028 73.707L62.0028 66.207L58.9972 58.793L40.4972 66.293L43.5028 73.707ZM62.528 89.3033L43.778 81.5533L40.722 88.9467L59.472 96.6967L62.528 89.3033ZM43.778 81.5533L25.028 73.8033L21.972 81.1967L40.722 88.9467L43.778 81.5533Z" fill="#FADA58"/>
<path d="M167 120.5L167.5 94L186 86.5L204.5 79L185.75 71.25L167 63.5V36H143.5L111 120.5H167Z" fill="#FFFCF2"/>
<path d="M167.5 94L165.997 90.293L163.551 91.2849L163.501 93.9245L167.5 94ZM167 120.5V124.5H170.925L170.999 120.575L167 120.5ZM111 120.5L107.267 119.064L105.176 124.5H111V120.5ZM143.5 36V32H140.753L139.767 34.5641L143.5 36ZM167 36H171V32H167V36ZM167 63.5H163V66.1749L165.472 67.1967L167 63.5ZM204.5 79L206.003 82.707L206.028 75.3033L204.5 79ZM163.501 93.9245L163.001 120.425L170.999 120.575L171.499 94.0755L163.501 93.9245ZM167 116.5H111V124.5H167V116.5ZM114.733 121.936L147.233 37.4359L139.767 34.5641L107.267 119.064L114.733 121.936ZM143.5 40H167V32H143.5V40ZM163 36V63.5H171V36H163ZM202.997 75.293L184.497 82.793L187.503 90.207L206.003 82.707L202.997 75.293ZM184.497 82.793L165.997 90.293L169.003 97.707L187.503 90.207L184.497 82.793ZM165.472 67.1967L184.222 74.9467L187.278 67.5533L168.528 59.8033L165.472 67.1967ZM184.222 74.9467L202.972 82.6967L206.028 75.3033L187.278 67.5533L184.222 74.9467Z" fill="#FADA58"/>
<path d="M57.5 131.5H52.5C51.9477 131.5 51.5 131.948 51.5 132.5V142.5C51.5 142.815 51.3518 143.111 51.1 143.3L47.5 146M47.5 146H45M47.5 146L51.1 148.7C51.3518 148.889 51.5 149.185 51.5 149.5V159.5C51.5 160.052 51.9477 160.5 52.5 160.5H57.5" stroke="#FFFCF2" stroke-width="5"/>
<path d="M170 131.5H175C175.552 131.5 176 131.948 176 132.5V142.5C176 142.815 176.148 143.111 176.4 143.3L180 146M180 146H182.5M180 146L176.4 148.7C176.148 148.889 176 149.185 176 149.5V159.5C176 160.052 175.552 160.5 175 160.5H170" stroke="#FFFCF2" stroke-width="5"/>
<rect x="60.5" y="132.5" width="4" height="4" fill="#FFFCF2" stroke="#FFFCF2"/>
<rect x="60.5" y="139.5" width="4" height="4" fill="#FFFCF2" stroke="#FFFCF2"/>
<rect x="60.5" y="154.5" width="4" height="4" fill="#FFFCF2" stroke="#FFFCF2"/>
<rect x="60.5" y="146.5" width="12" height="4" fill="#FFFCF2" stroke="#FFFCF2"/>
<rect x="75.5" y="154.5" width="26" height="4" fill="#FFFCF2" stroke="#FFFCF2"/>
<rect x="68.5" y="132.5" width="4" height="4" fill="#FFFCF2" stroke="#FFFCF2"/>
<rect x="68.5" y="139.5" width="4" height="4" fill="#FFFCF2" stroke="#FFFCF2"/>
<rect x="68.5" y="154.5" width="4" height="4" fill="#FFFCF2" stroke="#FFFCF2"/>
<rect x="75.5" y="132.5" width="4" height="4" fill="#FFFCF2" stroke="#FFFCF2"/>
<rect x="75.5" y="139.5" width="4" height="4" fill="#FFFCF2" stroke="#FFFCF2"/>
<rect x="75.5" y="146.5" width="4" height="4" fill="#FFFCF2" stroke="#FFFCF2"/>
<rect x="83.5" y="132.5" width="4" height="4" fill="#FFFCF2" stroke="#FFFCF2"/>
<rect x="122.5" y="132.5" width="4" height="4" fill="#FFFCF2" stroke="#FFFCF2"/>
<rect x="122.5" y="139.5" width="4" height="4" fill="#FFFCF2" stroke="#FFFCF2"/>
<rect x="122.5" y="154.5" width="4" height="4" fill="#FFFCF2" stroke="#FFFCF2"/>
<rect x="148.5" y="132.5" width="4" height="4" fill="#FFFCF2" stroke="#FFFCF2"/>
<rect x="148.5" y="139.5" width="4" height="4" fill="#FFFCF2" stroke="#FFFCF2"/>
<rect x="148.5" y="146.5" width="4" height="4" fill="#FFFCF2" stroke="#FFFCF2"/>
<rect x="148.5" y="154.5" width="4" height="4" fill="#FFFCF2" stroke="#FFFCF2"/>
<rect x="83.5" y="139.5" width="4" height="4" fill="#FFFCF2" stroke="#FFFCF2"/>
<rect x="83.5" y="146.5" width="4" height="4" fill="#FFFCF2" stroke="#FFFCF2"/>
<rect x="90.5" y="132.5" width="4" height="4" fill="#FFFCF2" stroke="#FFFCF2"/>
<rect x="129.5" y="132.5" width="4" height="4" fill="#FFFCF2" stroke="#FFFCF2"/>
<rect x="129.5" y="139.5" width="4" height="4" fill="#FFFCF2" stroke="#FFFCF2"/>
<rect x="129.5" y="147.5" width="4" height="4" fill="#FFFCF2" stroke="#FFFCF2"/>
<rect x="129.5" y="154.5" width="4" height="4" fill="#FFFCF2" stroke="#FFFCF2"/>
<rect x="155.5" y="132.5" width="4" height="4" fill="#FFFCF2" stroke="#FFFCF2"/>
<rect x="155.5" y="139.5" width="4" height="4" fill="#FFFCF2" stroke="#FFFCF2"/>
<rect x="155.5" y="146.5" width="4" height="4" fill="#FFFCF2" stroke="#FFFCF2"/>
<rect x="162.5" y="146.5" width="4" height="12" fill="#FFFCF2" stroke="#FFFCF2"/>
<rect x="155.5" y="154.5" width="4" height="4" fill="#FFFCF2" stroke="#FFFCF2"/>
<rect x="105.5" y="132.5" width="4" height="4" fill="#FFFCF2" stroke="#FFFCF2"/>
<rect x="90.5" y="139.5" width="4" height="4" fill="#FFFCF2" stroke="#FFFCF2"/>
<rect x="90.5" y="146.5" width="4" height="4" fill="#FFFCF2" stroke="#FFFCF2"/>
<rect x="97.5" y="132.5" width="4" height="4" fill="#FFFCF2" stroke="#FFFCF2"/>
<rect x="136.5" y="132.5" width="4" height="4" fill="#FFFCF2" stroke="#FFFCF2"/>
<rect x="136.5" y="139.5" width="4" height="4" fill="#FFFCF2" stroke="#FFFCF2"/>
<rect x="136.5" y="154.5" width="4" height="4" fill="#FFFCF2" stroke="#FFFCF2"/>
<rect x="162.5" y="132.5" width="4" height="4" fill="#FFFCF2" stroke="#FFFCF2"/>
<rect x="162.5" y="139.5" width="4" height="4" fill="#FFFCF2" stroke="#FFFCF2"/>
<rect x="112.5" y="132.5" width="4" height="4" fill="#FFFCF2" stroke="#FFFCF2"/>
<rect x="97.5" y="139.5" width="4" height="4" fill="#FFFCF2" stroke="#FFFCF2"/>
<rect x="105.5" y="146.5" width="4" height="4" fill="#FFFCF2" stroke="#FFFCF2"/>
<rect x="112.5" y="144.5" width="4" height="6" fill="#FFFCF2" stroke="#FFFCF2"/>
<rect x="105.5" y="139.5" width="11" height="4" fill="#FFFCF2" stroke="#FFFCF2"/>
<rect x="97.5" y="146.5" width="4" height="4" fill="#FFFCF2" stroke="#FFFCF2"/>
<rect x="105.5" y="154.5" width="4" height="4" fill="#FFFCF2" stroke="#FFFCF2"/>
<rect x="112.5" y="154.5" width="4" height="4" fill="#FFFCF2" stroke="#FFFCF2"/>
<path d="M245.4 95V66.84H252.56V95H245.4ZM236.72 72.8V66.64H261.24V72.8H236.72Z" fill="#FFFCF2"/>
<path d="M272.497 95V66.64H279.657V95H272.497ZM289.857 95V66.64H297.017V95H289.857ZM276.577 83.48V77.48H292.457V83.48H276.577Z" fill="#FFFCF2"/>
<path d="M307.987 95L318.987 66.64H325.907L336.787 95H329.307L321.107 71.16H323.707L315.307 95H307.987ZM314.667 90.04V84.36H330.307V90.04H314.667Z" fill="#FFFCF2"/>
<path d="M347.442 95V66.64H352.602L363.482 83.08H361.042L371.882 66.64H377.042V95H369.962V78.48L371.082 78.8L364.562 88.6H359.922L353.442 78.8L354.562 78.48V95H347.442Z" fill="#FFFCF2"/>
<path d="M398.77 84.84L387.93 66.64H396.13L404.41 81.4H398.65L406.93 66.64H414.97L404.05 84.84H398.77ZM397.93 95V81.92H405.09V95H397.93Z" fill="#FFFCF2"/>
<path d="M432.205 95.44C429.831 95.44 427.765 95.08 426.005 94.36C424.271 93.64 422.685 92.5067 421.245 90.96L425.765 86.4C426.751 87.44 427.805 88.24 428.925 88.8C430.045 89.3333 431.311 89.6 432.725 89.6C433.925 89.6 434.845 89.4 435.485 89C436.151 88.5733 436.485 88 436.485 87.28C436.485 86.6133 436.245 86.0667 435.765 85.64C435.285 85.1867 434.645 84.8 433.845 84.48C433.071 84.1333 432.205 83.8133 431.245 83.52C430.311 83.2 429.365 82.8267 428.405 82.4C427.471 81.9467 426.605 81.4 425.805 80.76C425.031 80.12 424.405 79.32 423.925 78.36C423.445 77.4 423.205 76.2133 423.205 74.8C423.205 72.9867 423.631 71.44 424.485 70.16C425.365 68.88 426.578 67.8933 428.125 67.2C429.671 66.5067 431.471 66.16 433.525 66.16C435.578 66.16 437.471 66.5067 439.205 67.2C440.938 67.8933 442.365 68.8533 443.485 70.08L438.925 74.6C438.071 73.7467 437.205 73.1067 436.325 72.68C435.445 72.2533 434.485 72.04 433.445 72.04C432.458 72.04 431.685 72.2133 431.125 72.56C430.565 72.9067 430.285 73.4 430.285 74.04C430.285 74.68 430.525 75.2 431.005 75.6C431.485 76 432.111 76.36 432.885 76.68C433.685 76.9733 434.551 77.28 435.485 77.6C436.445 77.92 437.391 78.2933 438.325 78.72C439.258 79.1467 440.111 79.6933 440.885 80.36C441.685 81.0267 442.325 81.8667 442.805 82.88C443.285 83.8933 443.525 85.12 443.525 86.56C443.525 89.3867 442.525 91.5733 440.525 93.12C438.551 94.6667 435.778 95.44 432.205 95.44Z" fill="#FFFCF2"/>
<path d="M458.753 95.44C457.579 95.44 456.619 95.0533 455.873 94.28C455.126 93.5067 454.753 92.5467 454.753 91.4C454.753 90.2533 455.126 89.2933 455.873 88.52C456.619 87.7467 457.579 87.36 458.753 87.36C459.899 87.36 460.846 87.7467 461.593 88.52C462.339 89.2933 462.713 90.2533 462.713 91.4C462.713 92.5467 462.339 93.5067 461.593 94.28C460.846 95.0533 459.899 95.44 458.753 95.44Z" fill="#FFFCF2"/>
<path d="M480.141 95V88.84H486.941C488.541 88.84 489.928 88.5333 491.101 87.92C492.301 87.3067 493.221 86.4 493.861 85.2C494.501 83.9733 494.821 82.4933 494.821 80.76C494.821 79.0533 494.488 77.6133 493.821 76.44C493.181 75.24 492.275 74.3333 491.101 73.72C489.928 73.1067 488.541 72.8 486.941 72.8H479.821V66.64H486.981C489.168 66.64 491.181 66.9867 493.021 67.68C494.861 68.3467 496.461 69.3067 497.821 70.56C499.181 71.8133 500.235 73.3067 500.981 75.04C501.755 76.7733 502.141 78.6933 502.141 80.8C502.141 82.9333 501.755 84.8667 500.981 86.6C500.235 88.3333 499.181 89.8267 497.821 91.08C496.461 92.3333 494.861 93.3067 493.021 94C491.208 94.6667 489.221 95 487.061 95H480.141ZM475.301 95V66.64H482.461V95H475.301Z" fill="#FFFCF2"/>
<path d="M513.731 95V66.64H520.891V95H513.731ZM519.411 95V88.96H534.771V95H519.411ZM519.411 83.48V77.6H533.331V83.48H519.411ZM519.411 72.68V66.64H534.531V72.68H519.411Z" fill="#FFFCF2"/>
<path d="M554.862 95L544.182 66.64H551.822L559.822 89.56H556.542L564.662 66.64H572.142L561.342 95H554.862Z" fill="#FFFCF2"/>
<path d="M237 126.818V114.182H238.682V126.818H237ZM238.145 121.265V119.699H244.624V121.265H238.145ZM238.145 115.748V114.182H244.928V115.748H238.145Z" fill="#FFFCF2"/>
<path d="M255.423 121.319V119.881H258.787C259.515 119.881 260.076 119.693 260.469 119.317C260.863 118.94 261.06 118.43 261.06 117.787C261.06 117.18 260.863 116.676 260.469 116.276C260.087 115.875 259.533 115.675 258.805 115.675H255.423V114.182H258.859C259.646 114.182 260.332 114.34 260.917 114.655C261.501 114.959 261.949 115.378 262.259 115.912C262.581 116.446 262.742 117.059 262.742 117.751C262.742 118.467 262.581 119.092 262.259 119.626C261.949 120.16 261.501 120.579 260.917 120.882C260.332 121.174 259.646 121.319 258.859 121.319H255.423ZM254.295 126.818V114.182H255.977V126.818H254.295ZM261.454 126.818L256.944 121.155L258.536 120.591L263.583 126.818H261.454Z" fill="#FFFCF2"/>
<path d="M277.944 127C277.062 127 276.238 126.836 275.475 126.508C274.711 126.169 274.043 125.701 273.47 125.106C272.898 124.5 272.45 123.802 272.128 123.013C271.818 122.224 271.663 121.38 271.663 120.482C271.663 119.571 271.818 118.728 272.128 117.951C272.45 117.162 272.892 116.47 273.452 115.875C274.025 115.281 274.687 114.819 275.439 114.492C276.202 114.164 277.026 114 277.909 114C278.791 114 279.609 114.164 280.36 114.492C281.124 114.819 281.792 115.281 282.365 115.875C282.937 116.47 283.385 117.162 283.707 117.951C284.029 118.74 284.19 119.59 284.19 120.5C284.19 121.398 284.029 122.242 283.707 123.031C283.385 123.82 282.937 124.512 282.365 125.106C281.804 125.701 281.142 126.169 280.378 126.508C279.627 126.836 278.815 127 277.944 127ZM277.909 125.361C278.803 125.361 279.585 125.155 280.253 124.742C280.933 124.317 281.47 123.741 281.864 123.013C282.257 122.272 282.454 121.429 282.454 120.482C282.454 119.778 282.341 119.134 282.114 118.552C281.888 117.957 281.571 117.441 281.166 117.004C280.76 116.567 280.283 116.233 279.734 116.003C279.185 115.76 278.577 115.639 277.909 115.639C277.026 115.639 276.244 115.845 275.564 116.258C274.896 116.67 274.365 117.241 273.971 117.969C273.59 118.697 273.399 119.535 273.399 120.482C273.399 121.186 273.506 121.841 273.721 122.448C273.948 123.043 274.258 123.559 274.651 123.996C275.057 124.421 275.534 124.754 276.083 124.997C276.644 125.24 277.252 125.361 277.909 125.361Z" fill="#FFFCF2"/>
<path d="M293.656 126.818V114.182H294.837L295.339 116.167V126.818H293.656ZM302.247 126.818L294.623 116.458L294.837 114.182L302.479 124.524L302.247 126.818ZM302.247 126.818L301.745 124.943V114.182H303.428V126.818H302.247Z" fill="#FFFCF2"/>
<path d="M316.813 126.818V114.546H318.496V126.818H316.813ZM312.59 115.748V114.182H322.701V115.748H312.59Z" fill="#FFFCF2"/>
<path d="M330.18 122.958V121.41H336.068V122.958H330.18Z" fill="#FFFCF2"/>
<path d="M345.874 126.818V114.182H347.556V126.818H345.874ZM347.019 126.818V125.252H354.142V126.818H347.019ZM347.019 121.101V119.608H353.551V121.101H347.019ZM347.019 115.748V114.182H354.052V115.748H347.019Z" fill="#FFFCF2"/>
<path d="M363.588 126.818V114.182H364.769L365.27 116.167V126.818H363.588ZM372.178 126.818L364.554 116.458L364.769 114.182L372.411 124.524L372.178 126.818ZM372.178 126.818L371.677 124.943V114.182H373.359V126.818H372.178Z" fill="#FFFCF2"/>
<path d="M384.562 126.818V125.252H388.016C388.934 125.252 389.74 125.052 390.432 124.651C391.124 124.239 391.661 123.674 392.042 122.958C392.436 122.242 392.633 121.416 392.633 120.482C392.633 119.559 392.436 118.74 392.042 118.024C391.649 117.308 391.106 116.749 390.414 116.349C389.722 115.948 388.922 115.748 388.016 115.748H384.58V114.182H388.052C388.958 114.182 389.793 114.34 390.557 114.655C391.333 114.971 392.001 115.414 392.561 115.985C393.134 116.555 393.576 117.223 393.886 117.987C394.208 118.752 394.369 119.59 394.369 120.5C394.369 121.398 394.208 122.236 393.886 123.013C393.576 123.777 393.14 124.445 392.579 125.015C392.019 125.586 391.35 126.029 390.575 126.345C389.811 126.66 388.982 126.818 388.087 126.818H384.562ZM383.452 126.818V114.182H385.134V126.818H383.452Z" fill="#FFFCF2"/>
<path d="M415.849 126.818V125.252H419.303C420.221 125.252 421.027 125.052 421.719 124.651C422.411 124.239 422.948 123.674 423.329 122.958C423.723 122.242 423.92 121.416 423.92 120.482C423.92 119.559 423.723 118.74 423.329 118.024C422.936 117.308 422.393 116.749 421.701 116.349C421.009 115.948 420.209 115.748 419.303 115.748H415.867V114.182H419.339C420.245 114.182 421.08 114.34 421.844 114.655C422.619 114.971 423.288 115.414 423.848 115.985C424.421 116.555 424.862 117.223 425.173 117.987C425.495 118.752 425.656 119.59 425.656 120.5C425.656 121.398 425.495 122.236 425.173 123.013C424.862 123.777 424.427 124.445 423.866 125.015C423.305 125.586 422.637 126.029 421.862 126.345C421.098 126.66 420.269 126.818 419.374 126.818H415.849ZM414.739 126.818V114.182H416.421V126.818H414.739Z" fill="#FFFCF2"/>
<path d="M435.145 126.818V114.182H436.827V126.818H435.145ZM436.29 126.818V125.252H443.413V126.818H436.29ZM436.29 121.101V119.608H442.823V121.101H436.29ZM436.29 115.748V114.182H443.324V115.748H436.29Z" fill="#FFFCF2"/>
<path d="M456.677 126.818L451.702 114.182H453.528L457.626 124.87H456.964L461.098 114.182H462.905L457.894 126.818H456.677Z" fill="#FFFCF2"/>
<path d="M472.095 126.818V114.182H473.777V126.818H472.095ZM473.24 126.818V125.252H480.363V126.818H473.24ZM473.24 121.101V119.608H479.772V121.101H473.24ZM473.24 115.748V114.182H480.273V115.748H473.24Z" fill="#FFFCF2"/>
<path d="M489.809 126.818V114.182H491.491V126.818H489.809ZM490.954 126.818V125.252H497.612V126.818H490.954Z" fill="#FFFCF2"/>
<path d="M511.414 127C510.531 127 509.708 126.836 508.944 126.508C508.18 126.169 507.512 125.701 506.94 125.106C506.367 124.5 505.919 123.802 505.597 123.013C505.287 122.224 505.132 121.38 505.132 120.482C505.132 119.571 505.287 118.728 505.597 117.951C505.919 117.162 506.361 116.47 506.922 115.875C507.494 115.281 508.156 114.819 508.908 114.492C509.672 114.164 510.495 114 511.378 114C512.261 114 513.078 114.164 513.83 114.492C514.593 114.819 515.261 115.281 515.834 115.875C516.407 116.47 516.854 117.162 517.176 117.951C517.498 118.74 517.659 119.59 517.659 120.5C517.659 121.398 517.498 122.242 517.176 123.031C516.854 123.82 516.407 124.512 515.834 125.106C515.273 125.701 514.611 126.169 513.848 126.508C513.096 126.836 512.285 127 511.414 127ZM511.378 125.361C512.273 125.361 513.054 125.155 513.722 124.742C514.402 124.317 514.939 123.741 515.333 123.013C515.727 122.272 515.923 121.429 515.923 120.482C515.923 119.778 515.81 119.134 515.583 118.552C515.357 117.957 515.041 117.441 514.635 117.004C514.229 116.567 513.752 116.233 513.203 116.003C512.654 115.76 512.046 115.639 511.378 115.639C510.495 115.639 509.713 115.845 509.033 116.258C508.365 116.67 507.834 117.241 507.441 117.969C507.059 118.697 506.868 119.535 506.868 120.482C506.868 121.186 506.975 121.841 507.19 122.448C507.417 123.043 507.727 123.559 508.121 123.996C508.526 124.421 509.004 124.754 509.552 124.997C510.113 125.24 510.722 125.361 511.378 125.361Z" fill="#FFFCF2"/>
<path d="M528.253 121.902V120.409H531.635C532.101 120.409 532.512 120.312 532.87 120.118C533.24 119.923 533.526 119.65 533.729 119.298C533.944 118.946 534.051 118.528 534.051 118.042C534.051 117.556 533.944 117.138 533.729 116.786C533.526 116.434 533.24 116.161 532.87 115.966C532.512 115.772 532.101 115.675 531.635 115.675H528.253V114.182H531.743C532.506 114.182 533.186 114.34 533.783 114.655C534.391 114.971 534.869 115.42 535.215 116.003C535.573 116.573 535.752 117.253 535.752 118.042C535.752 118.819 535.573 119.499 535.215 120.081C534.869 120.652 534.391 121.101 533.783 121.429C533.186 121.744 532.506 121.902 531.743 121.902H528.253ZM527.126 126.818V114.182H528.808V126.818H527.126Z" fill="#FFFCF2"/>
<path d="M544.997 126.818V114.182H546.68V126.818H544.997ZM546.143 126.818V125.252H553.265V126.818H546.143ZM546.143 121.101V119.608H552.675V121.101H546.143ZM546.143 115.748V114.182H553.176V115.748H546.143Z" fill="#FFFCF2"/>
<path d="M563.839 121.319V119.881H567.204C567.932 119.881 568.492 119.693 568.886 119.317C569.28 118.94 569.477 118.43 569.477 117.787C569.477 117.18 569.28 116.676 568.886 116.276C568.504 115.875 567.949 115.675 567.222 115.675H563.839V114.182H567.275C568.063 114.182 568.749 114.34 569.333 114.655C569.918 114.959 570.365 115.378 570.676 115.912C570.998 116.446 571.159 117.059 571.159 117.751C571.159 118.467 570.998 119.092 570.676 119.626C570.365 120.16 569.918 120.579 569.333 120.882C568.749 121.174 568.063 121.319 567.275 121.319H563.839ZM562.712 126.818V114.182H564.394V126.818H562.712ZM569.87 126.818L565.36 121.155L566.953 120.591L572 126.818H569.87Z" fill="#FFFCF2"/>
</svg>
